<?xml version="1.0" encoding="UTF-8"?>
<svg xmlns="http://www.w3.org/2000/svg" xmlns:xlink="http://www.w3.org/1999/xlink" width="612pt" height="612pt" viewBox="0 0 612 612" version="1.1">
<g id="surface1">
<rect x="0" y="0" width="612" height="612" style="fill:rgb(100%,100%,100%);fill-opacity:1;stroke:none;"/>
<path style=" stroke:none;fill-rule:nonzero;fill:rgb(13.729858%,12.158203%,12.547302%);fill-opacity:1;" d="M 305.820312 440.640625 L 342.054688 440.554688 Z M 274.257812 431.722656 C 275.878906 430.703125 276.648438 430.191406 278.132812 429.167969 C 279.554688 429.164062 280.261719 429.164062 281.679688 429.160156 C 282.609375 430.175781 283.082031 430.6875 284.042969 431.699219 C 283.425781 434.136719 283.082031 435.351562 282.28125 437.742188 C 280.644531 438.746094 279.796875 439.242188 278.015625 440.234375 L 273.90625 440.234375 C 272.996094 439.246094 272.546875 438.75 271.664062 437.75 C 272.84375 435.363281 273.355469 434.15625 274.257812 431.722656 Z M 274.070312 431.28125 C 274.511719 430.074219 274.953125 428.753906 275.375 427.324219 C 276.21875 424.464844 276.976562 421.175781 277.507812 417.476562 C 277.90625 414.699219 278.234375 411.878906 278.5 409.078125 C 278.675781 407.207031 278.828125 405.347656 278.957031 403.515625 C 278.828125 405.347656 278.675781 407.207031 278.5 409.078125 C 278.234375 411.878906 277.90625 414.699219 277.507812 417.476562 C 276.976562 421.175781 276.21875 424.464844 275.375 427.324219 C 274.953125 428.753906 274.511719 430.074219 274.070312 431.28125 C 273.40625 433.09375 272.734375 434.652344 272.125 435.949219 C 272.734375 434.652344 273.40625 433.09375 274.070312 431.28125 Z M 302.289062 181.972656 C 300.804688 181.96875 300.070312 181.964844 298.609375 181.960938 C 297.289062 180.9375 296.613281 180.425781 295.222656 179.402344 C 294.875 176.960938 294.683594 175.746094 294.246094 173.34375 C 295.402344 172.339844 296.003906 171.839844 297.285156 170.84375 L 301.625 170.84375 C 303.183594 171.84375 303.941406 172.34375 305.417969 173.351562 L 305.417969 179.421875 C 304.097656 180.441406 303.480469 180.953125 302.289062 181.972656 Z M 302.777344 193.8125 C 301.503906 193.8125 300.855469 193.808594 299.550781 193.808594 C 298.390625 192.796875 297.792969 192.289062 296.578125 191.269531 C 296.359375 188.832031 296.238281 187.609375 295.960938 185.15625 C 297.015625 184.136719 297.554688 183.625 298.671875 182.605469 C 300.121094 182.609375 300.851562 182.613281 302.320312 182.617188 C 303.601562 183.640625 304.222656 184.15625 305.417969 185.183594 L 305.417969 191.285156 C 304.335938 192.300781 303.8125 192.804688 302.777344 193.8125 Z M 302.9375 206.078125 C 301.738281 206.082031 301.128906 206.082031 299.902344 206.085938 C 298.859375 204.964844 298.332031 204.410156 297.246094 203.308594 C 297.175781 200.667969 297.132812 199.375 297.03125 196.957031 C 298.078125 195.945312 298.5625 195.449219 299.589844 194.445312 C 300.890625 194.445312 301.535156 194.445312 302.800781 194.445312 C 303.894531 195.453125 304.421875 195.949219 305.417969 196.953125 L 305.417969 203.285156 C 304.4375 204.390625 303.9375 204.949219 302.9375 206.078125 Z M 302.945312 219.128906 C 301.757812 219.132812 301.164062 219.132812 299.96875 219.132812 C 298.972656 218.046875 298.46875 217.496094 297.453125 216.386719 C 297.4375 213.726562 297.421875 212.351562 297.378906 209.632812 C 298.390625 208.496094 298.898438 207.925781 299.910156 206.796875 C 301.132812 206.792969 301.742188 206.789062 302.9375 206.785156 C 303.945312 207.910156 304.441406 208.476562 305.417969 209.609375 L 305.417969 216.375 C 304.4375 217.492188 303.941406 218.042969 302.945312 219.128906 Z M 302.925781 231.789062 L 299.949219 231.789062 C 298.953125 230.636719 298.453125 230.0625 297.457031 228.9375 C 297.457031 226.242188 297.457031 225.007812 297.464844 222.46875 C 298.464844 221.410156 298.96875 220.890625 299.96875 219.8125 C 301.160156 219.8125 301.757812 219.8125 302.941406 219.8125 C 303.933594 220.886719 304.425781 221.410156 305.417969 222.46875 L 305.417969 228.9375 C 304.421875 230.0625 303.921875 230.636719 302.925781 231.789062 Z M 302.925781 245.132812 L 299.949219 245.132812 C 298.953125 244.042969 298.453125 243.484375 297.457031 242.351562 L 297.457031 235.425781 C 298.453125 234.257812 298.953125 233.675781 299.949219 232.515625 L 302.925781 232.515625 C 303.921875 233.675781 304.421875 234.257812 305.417969 235.425781 L 305.417969 242.351562 C 304.421875 243.484375 303.921875 244.042969 302.925781 245.132812 Z M 302.925781 257.769531 L 299.949219 257.769531 C 298.953125 256.59375 298.453125 256.015625 297.457031 254.882812 L 297.457031 248.449219 C 298.453125 247.425781 298.953125 246.898438 299.949219 245.816406 L 302.925781 245.816406 C 303.921875 246.898438 304.421875 247.425781 305.417969 248.449219 L 305.417969 254.882812 C 304.421875 256.015625 303.921875 256.59375 302.925781 257.769531 Z M 302.925781 271.640625 L 299.949219 271.640625 C 298.953125 270.492188 298.453125 269.90625 297.457031 268.71875 L 297.457031 261.507812 C 298.453125 260.300781 298.953125 259.699219 299.949219 258.515625 L 302.925781 258.515625 C 303.921875 259.699219 304.421875 260.300781 305.417969 261.507812 L 305.417969 268.71875 C 304.421875 269.90625 303.921875 270.492188 302.925781 271.640625 Z M 302.925781 284.367188 L 299.949219 284.367188 C 298.953125 283.207031 298.453125 282.632812 297.457031 281.515625 L 297.457031 275.109375 C 298.453125 274.042969 298.953125 273.488281 299.949219 272.355469 L 302.925781 272.355469 C 303.921875 273.488281 304.421875 274.042969 305.417969 275.109375 L 305.417969 281.515625 C 304.421875 282.632812 303.921875 283.207031 302.925781 284.367188 Z M 302.925781 298.1875 L 299.949219 298.1875 C 298.953125 297.027344 298.453125 296.4375 297.457031 295.246094 L 297.457031 288.066406 C 298.453125 286.871094 298.953125 286.273438 299.949219 285.101562 L 302.925781 285.101562 C 303.921875 286.273438 304.421875 286.871094 305.417969 288.066406 L 305.417969 295.246094 C 304.421875 296.4375 303.921875 297.027344 302.925781 298.1875 Z M 302.925781 312.167969 L 299.949219 312.167969 C 298.953125 311.015625 298.453125 310.453125 297.457031 309.351562 L 297.457031 301.726562 C 298.453125 300.628906 298.953125 300.0625 299.949219 298.914062 L 302.925781 298.914062 C 303.921875 300.0625 304.421875 300.628906 305.417969 301.726562 L 305.417969 309.351562 C 304.421875 310.453125 303.921875 311.015625 302.925781 312.167969 Z M 302.925781 325.976562 L 299.949219 325.976562 C 298.953125 324.804688 298.453125 324.210938 297.457031 323.015625 L 297.457031 315.832031 C 298.453125 314.640625 298.953125 314.050781 299.949219 312.894531 L 302.925781 312.894531 C 303.921875 314.050781 304.421875 314.640625 305.417969 315.832031 L 305.417969 323.015625 C 304.421875 324.210938 303.921875 324.804688 302.925781 325.976562 Z M 302.925781 338.726562 L 299.949219 338.726562 C 298.953125 337.59375 298.453125 337.039062 297.457031 335.96875 L 297.457031 329.566406 C 298.453125 328.445312 298.953125 327.875 299.949219 326.710938 L 302.925781 326.710938 C 303.921875 327.875 304.421875 328.445312 305.417969 329.566406 L 305.417969 335.96875 C 304.421875 337.039062 303.921875 337.59375 302.925781 338.726562 Z M 302.925781 352.566406 L 299.949219 352.566406 C 298.953125 351.382812 298.453125 350.78125 297.457031 349.574219 L 297.457031 342.359375 C 298.453125 341.171875 298.953125 340.585938 299.949219 339.441406 L 302.925781 339.441406 C 303.921875 340.585938 304.421875 341.171875 305.417969 342.359375 L 305.417969 349.574219 C 304.421875 350.78125 303.921875 351.382812 302.925781 352.566406 Z M 302.925781 365.261719 L 299.949219 365.261719 C 298.953125 364.183594 298.453125 363.65625 297.457031 362.628906 L 297.457031 356.199219 C 298.453125 355.066406 298.953125 354.484375 299.949219 353.308594 L 302.925781 353.308594 C 303.921875 354.484375 304.421875 355.066406 305.417969 356.199219 L 305.417969 362.628906 C 304.421875 363.65625 303.921875 364.183594 302.925781 365.261719 Z M 302.925781 378.5625 L 299.949219 378.5625 C 298.953125 377.40625 298.453125 376.820312 297.457031 375.652344 L 297.457031 368.730469 C 298.453125 367.597656 298.953125 367.039062 299.949219 365.945312 L 302.925781 365.945312 C 303.921875 367.039062 304.421875 367.597656 305.417969 368.730469 L 305.417969 375.652344 C 304.421875 376.820312 303.921875 377.40625 302.925781 378.5625 Z M 302.941406 391.269531 C 301.757812 391.269531 301.160156 391.269531 299.96875 391.265625 C 298.96875 390.191406 298.464844 389.667969 297.464844 388.609375 C 297.457031 386.074219 297.457031 384.835938 297.457031 382.140625 C 298.453125 381.015625 298.953125 380.445312 299.949219 379.289062 L 302.925781 379.289062 C 303.921875 380.445312 304.421875 381.015625 305.417969 382.140625 L 305.417969 388.609375 C 304.425781 389.671875 303.933594 390.191406 302.941406 391.269531 Z M 302.9375 404.292969 C 301.742188 404.289062 301.132812 404.289062 299.910156 404.285156 C 298.898438 403.152344 298.390625 402.582031 297.378906 401.445312 C 297.421875 398.726562 297.4375 397.351562 297.453125 394.691406 C 298.46875 393.582031 298.972656 393.03125 299.96875 391.945312 C 301.164062 391.949219 301.757812 391.949219 302.945312 391.949219 C 303.941406 393.035156 304.4375 393.585938 305.417969 394.703125 L 305.417969 401.46875 C 304.441406 402.601562 303.945312 403.167969 302.9375 404.292969 Z M 302.800781 416.632812 C 301.535156 416.632812 300.890625 416.632812 299.589844 416.636719 C 298.5625 415.628906 298.078125 415.132812 297.03125 414.125 C 297.132812 411.703125 297.175781 410.410156 297.246094 407.769531 C 298.332031 406.667969 298.859375 406.113281 299.902344 404.992188 C 301.128906 404.996094 301.738281 404.996094 302.9375 405 C 303.9375 406.128906 304.4375 406.691406 305.417969 407.796875 L 305.417969 414.125 C 304.421875 415.128906 303.894531 415.625 302.800781 416.632812 Z M 302.320312 428.464844 C 300.851562 428.46875 300.121094 428.46875 298.671875 428.472656 C 297.554688 427.453125 297.015625 426.941406 295.960938 425.921875 C 296.238281 423.472656 296.359375 422.246094 296.578125 419.8125 C 297.792969 418.789062 298.390625 418.28125 299.550781 417.269531 C 300.855469 417.269531 301.503906 417.269531 302.777344 417.265625 C 303.8125 418.273438 304.335938 418.78125 305.417969 419.792969 L 305.417969 425.898438 C 304.222656 426.921875 303.601562 427.4375 302.320312 428.464844 Z M 295.222656 431.675781 C 296.613281 430.65625 297.289062 430.144531 298.609375 429.117188 C 300.070312 429.113281 300.804688 429.113281 302.289062 429.109375 C 303.480469 430.128906 304.097656 430.636719 305.417969 431.65625 L 305.417969 437.730469 C 303.941406 438.734375 303.183594 439.238281 301.625 440.234375 L 297.285156 440.234375 C 296.003906 439.238281 295.402344 438.738281 294.246094 437.734375 C 294.683594 435.332031 294.875 434.117188 295.222656 431.675781 Z M 288.300781 429.144531 C 289.722656 429.140625 290.433594 429.136719 291.863281 429.132812 C 292.894531 430.152344 293.417969 430.660156 294.503906 431.679688 C 294.136719 434.117188 293.933594 435.332031 293.472656 437.738281 C 291.949219 438.742188 291.167969 439.242188 289.550781 440.234375 L 285.53125 440.234375 C 284.503906 439.242188 284.007812 438.742188 283.035156 437.742188 C 283.8125 435.347656 284.148438 434.136719 284.746094 431.699219 C 286.210938 430.679688 286.917969 430.167969 288.300781 429.144531 Z M 280.679688 417.296875 C 281.941406 417.292969 282.585938 417.292969 283.882812 417.289062 C 284.835938 418.304688 285.320312 418.816406 286.292969 419.832031 C 285.957031 422.273438 285.765625 423.5 285.300781 425.949219 C 283.949219 426.980469 283.261719 427.492188 281.835938 428.515625 C 280.429688 428.519531 279.722656 428.523438 278.3125 428.527344 C 277.417969 427.507812 276.976562 426.996094 276.117188 425.976562 C 276.800781 423.527344 277.085938 422.296875 277.582031 419.851562 C 278.851562 418.824219 279.464844 418.316406 280.679688 417.296875 Z M 282.109375 404.933594 C 283.308594 404.9375 283.917969 404.941406 285.144531 404.945312 C 286.089844 406.070312 286.570312 406.632812 287.542969 407.738281 C 287.347656 410.382812 287.234375 411.683594 286.972656 414.121094 C 285.773438 415.140625 285.179688 415.636719 283.964844 416.652344 C 282.671875 416.652344 282.03125 416.65625 280.773438 416.65625 C 279.871094 415.640625 279.429688 415.144531 278.585938 414.117188 C 278.949219 411.664062 279.105469 410.363281 279.371094 407.714844 C 280.464844 406.613281 281.015625 406.054688 282.109375 404.933594 Z M 284.042969 179.378906 C 283.082031 180.394531 282.609375 180.902344 281.679688 181.921875 C 280.261719 181.917969 279.554688 181.914062 278.132812 181.910156 C 276.648438 180.886719 275.878906 180.375 274.257812 179.359375 C 273.355469 176.925781 272.84375 175.714844 271.664062 173.328125 C 272.546875 172.332031 272.996094 171.832031 273.90625 170.84375 L 278.015625 170.84375 C 279.796875 171.835938 280.644531 172.332031 282.28125 173.335938 C 283.082031 175.730469 283.425781 176.941406 284.042969 179.378906 Z M 291.863281 181.945312 C 290.433594 181.941406 289.722656 181.941406 288.300781 181.9375 C 286.917969 180.910156 286.210938 180.402344 284.746094 179.378906 C 284.148438 176.945312 283.8125 175.730469 283.035156 173.335938 C 284.007812 172.335938 284.503906 171.835938 285.53125 170.84375 L 289.550781 170.84375 C 291.167969 171.839844 291.949219 172.339844 293.472656 173.34375 C 293.933594 175.746094 294.136719 176.960938 294.503906 179.402344 C 293.417969 180.417969 292.894531 180.925781 291.863281 181.945312 Z M 293.367188 193.800781 C 292.035156 193.796875 291.371094 193.796875 290.039062 193.796875 C 288.816406 192.78125 288.199219 192.269531 286.941406 191.25 C 286.613281 188.808594 286.425781 187.582031 285.972656 185.128906 C 286.941406 184.109375 287.429688 183.597656 288.425781 182.578125 C 289.835938 182.582031 290.546875 182.585938 291.96875 182.589844 C 293.320312 183.613281 293.980469 184.128906 295.277344 185.15625 C 295.570312 187.605469 295.695312 188.832031 295.925781 191.269531 C 294.894531 192.28125 294.386719 192.789062 293.367188 193.800781 Z M 294.089844 206.105469 C 292.835938 206.109375 292.207031 206.113281 290.957031 206.117188 C 289.851562 204.996094 289.289062 204.441406 288.15625 203.335938 C 287.96875 200.695312 287.859375 199.394531 287.605469 196.957031 C 288.59375 195.9375 289.101562 195.445312 290.105469 194.433594 C 291.433594 194.433594 292.101562 194.4375 293.429688 194.4375 C 294.636719 195.449219 295.257812 195.945312 296.394531 196.957031 C 296.507812 199.375 296.554688 200.671875 296.632812 203.3125 C 295.609375 204.417969 295.101562 204.980469 294.089844 206.105469 Z M 294.367188 219.136719 C 293.164062 219.140625 292.5625 219.140625 291.359375 219.140625 C 290.339844 218.058594 289.824219 217.507812 288.78125 216.398438 C 288.707031 213.746094 288.65625 212.375 288.527344 209.660156 C 289.503906 208.523438 289.996094 207.957031 290.988281 206.824219 C 292.238281 206.820312 292.867188 206.820312 294.113281 206.816406 C 295.199219 207.9375 295.730469 208.503906 296.78125 209.636719 C 296.832031 212.355469 296.847656 213.726562 296.867188 216.390625 C 295.863281 217.5 295.363281 218.054688 294.367188 219.136719 Z M 296.875 228.9375 C 295.878906 230.0625 295.378906 230.636719 294.382812 231.789062 L 291.40625 231.789062 C 290.410156 230.636719 289.910156 230.0625 288.914062 228.9375 C 288.914062 226.242188 288.925781 225.007812 288.898438 222.472656 C 289.886719 221.414062 290.378906 220.890625 291.371094 219.816406 C 292.570312 219.816406 293.171875 219.816406 294.371094 219.816406 C 295.382812 220.890625 295.886719 221.410156 296.882812 222.46875 C 296.878906 225.007812 296.875 226.242188 296.875 228.9375 Z M 291.40625 365.945312 L 294.382812 365.945312 C 295.378906 367.039062 295.878906 367.597656 296.875 368.730469 L 296.875 375.652344 C 295.878906 376.820312 295.378906 377.40625 294.382812 378.5625 L 291.40625 378.5625 C 290.410156 377.40625 289.910156 376.820312 288.914062 375.652344 L 288.914062 368.730469 C 289.910156 367.597656 290.410156 367.039062 291.40625 365.945312 Z M 291.40625 353.308594 L 294.382812 353.308594 C 295.378906 354.484375 295.878906 355.066406 296.875 356.199219 L 296.875 362.628906 C 295.878906 363.65625 295.378906 364.183594 294.382812 365.261719 L 291.40625 365.261719 C 290.410156 364.183594 289.910156 363.65625 288.914062 362.628906 L 288.914062 356.199219 C 289.910156 355.066406 290.410156 354.484375 291.40625 353.308594 Z M 291.40625 339.441406 L 294.382812 339.441406 C 295.378906 340.585938 295.878906 341.171875 296.875 342.359375 L 296.875 349.574219 C 295.878906 350.78125 295.378906 351.382812 294.382812 352.566406 L 291.40625 352.566406 C 290.410156 351.382812 289.910156 350.78125 288.914062 349.574219 L 288.914062 342.359375 C 289.910156 341.171875 290.410156 340.585938 291.40625 339.441406 Z M 291.40625 326.710938 L 294.382812 326.710938 C 295.378906 327.875 295.878906 328.445312 296.875 329.566406 L 296.875 335.96875 C 295.878906 337.039062 295.378906 337.59375 294.382812 338.726562 L 291.40625 338.726562 C 290.410156 337.59375 289.910156 337.039062 288.914062 335.96875 L 288.914062 329.566406 C 289.910156 328.445312 290.410156 327.875 291.40625 326.710938 Z M 291.40625 312.894531 L 294.382812 312.894531 C 295.378906 314.050781 295.878906 314.640625 296.875 315.832031 L 296.875 323.015625 C 295.878906 324.210938 295.378906 324.804688 294.382812 325.976562 L 291.40625 325.976562 C 290.410156 324.804688 289.910156 324.210938 288.914062 323.015625 L 288.914062 315.832031 C 289.910156 314.640625 290.410156 314.050781 291.40625 312.894531 Z M 291.40625 298.914062 L 294.382812 298.914062 C 295.378906 300.0625 295.878906 300.628906 296.875 301.726562 L 296.875 309.351562 C 295.878906 310.453125 295.378906 311.015625 294.382812 312.167969 L 291.40625 312.167969 C 290.410156 311.015625 289.910156 310.453125 288.914062 309.351562 L 288.914062 301.726562 C 289.910156 300.628906 290.410156 300.0625 291.40625 298.914062 Z M 291.40625 285.101562 L 294.382812 285.101562 C 295.378906 286.273438 295.878906 286.871094 296.875 288.066406 L 296.875 295.246094 C 295.878906 296.4375 295.378906 297.027344 294.382812 298.1875 L 291.40625 298.1875 C 290.410156 297.027344 289.910156 296.4375 288.914062 295.246094 L 288.914062 288.066406 C 289.910156 286.871094 290.410156 286.273438 291.40625 285.101562 Z M 291.40625 272.355469 L 294.382812 272.355469 C 295.378906 273.488281 295.878906 274.042969 296.875 275.109375 L 296.875 281.515625 C 295.878906 282.632812 295.378906 283.207031 294.382812 284.367188 L 291.40625 284.367188 C 290.410156 283.207031 289.910156 282.632812 288.914062 281.515625 L 288.914062 275.109375 C 289.910156 274.042969 290.410156 273.488281 291.40625 272.355469 Z M 291.40625 258.515625 L 294.382812 258.515625 C 295.378906 259.699219 295.878906 260.300781 296.875 261.507812 L 296.875 268.71875 C 295.878906 269.90625 295.378906 270.492188 294.382812 271.640625 L 291.40625 271.640625 C 290.410156 270.492188 289.910156 269.90625 288.914062 268.71875 L 288.914062 261.507812 C 289.910156 260.300781 290.410156 259.699219 291.40625 258.515625 Z M 288.914062 242.351562 L 288.914062 235.425781 C 289.910156 234.257812 290.410156 233.675781 291.40625 232.515625 L 294.382812 232.515625 C 295.378906 233.675781 295.878906 234.257812 296.875 235.425781 L 296.875 242.351562 C 295.878906 243.484375 295.378906 244.042969 294.382812 245.132812 L 291.40625 245.132812 C 290.410156 244.042969 289.910156 243.484375 288.914062 242.351562 Z M 291.40625 245.816406 L 294.382812 245.816406 C 295.378906 246.898438 295.878906 247.425781 296.875 248.449219 L 296.875 254.882812 C 295.878906 256.015625 295.378906 256.59375 294.382812 257.769531 L 291.40625 257.769531 C 290.410156 256.59375 289.910156 256.015625 288.914062 254.882812 L 288.914062 248.449219 C 289.910156 247.425781 290.410156 246.898438 291.40625 245.816406 Z M 294.371094 391.265625 C 293.171875 391.261719 292.570312 391.261719 291.371094 391.261719 C 290.378906 390.1875 289.886719 389.667969 288.898438 388.609375 C 288.925781 386.074219 288.914062 384.835938 288.914062 382.140625 C 289.910156 381.015625 290.410156 380.445312 291.40625 379.289062 L 294.382812 379.289062 C 295.378906 380.445312 295.878906 381.015625 296.875 382.140625 C 296.875 384.835938 296.878906 386.074219 296.882812 388.609375 C 295.886719 389.667969 295.382812 390.191406 294.371094 391.265625 Z M 294.113281 404.265625 C 292.867188 404.261719 292.238281 404.257812 290.988281 404.253906 C 289.996094 403.125 289.503906 402.554688 288.527344 401.417969 C 288.65625 398.703125 288.707031 397.332031 288.78125 394.679688 C 289.824219 393.570312 290.339844 393.023438 291.359375 391.941406 C 292.5625 391.941406 293.164062 391.941406 294.367188 391.941406 C 295.363281 393.027344 295.863281 393.578125 296.867188 394.691406 C 296.847656 397.351562 296.832031 398.726562 296.78125 401.441406 C 295.730469 402.574219 295.199219 403.140625 294.113281 404.265625 Z M 280.226562 394.667969 C 281.25 393.5625 281.761719 393.015625 282.78125 391.933594 C 283.96875 391.933594 284.5625 391.9375 285.757812 391.9375 C 286.730469 393.019531 287.214844 393.570312 288.195312 394.679688 C 288.117188 397.332031 288.0625 398.703125 287.929688 401.417969 C 286.84375 402.546875 286.296875 403.113281 285.195312 404.234375 C 283.96875 404.230469 283.363281 404.230469 282.164062 404.226562 C 281.246094 403.09375 280.792969 402.527344 279.890625 401.390625 C 280.070312 398.683594 280.136719 397.316406 280.226562 394.667969 Z M 285.757812 219.144531 C 284.5625 219.144531 283.96875 219.144531 282.78125 219.144531 C 281.761719 218.066406 281.25 217.519531 280.226562 216.410156 C 280.136719 213.765625 280.070312 212.398438 279.890625 209.6875 C 280.792969 208.550781 281.246094 207.984375 282.164062 206.855469 C 283.363281 206.851562 283.96875 206.847656 285.195312 206.84375 C 286.296875 207.96875 286.84375 208.53125 287.929688 209.664062 C 288.0625 212.375 288.117188 213.746094 288.195312 216.402344 C 287.214844 217.511719 286.730469 218.0625 285.757812 219.144531 Z M 288.335938 228.9375 C 287.335938 230.0625 286.839844 230.636719 285.839844 231.789062 L 282.867188 231.789062 C 281.867188 230.636719 281.371094 230.0625 280.371094 228.9375 C 280.371094 226.242188 280.386719 225.003906 280.363281 222.472656 C 281.347656 221.414062 281.832031 220.894531 282.800781 219.824219 C 283.984375 219.824219 284.582031 219.820312 285.773438 219.820312 C 286.796875 220.894531 287.304688 221.414062 288.316406 222.472656 C 288.347656 225.003906 288.335938 226.242188 288.335938 228.9375 Z M 282.867188 365.945312 L 285.839844 365.945312 C 286.839844 367.039062 287.335938 367.597656 288.335938 368.730469 L 288.335938 375.652344 C 287.335938 376.820312 286.839844 377.40625 285.839844 378.5625 L 282.867188 378.5625 C 281.867188 377.40625 281.371094 376.820312 280.371094 375.652344 L 280.371094 368.730469 C 281.371094 367.597656 281.867188 367.039062 282.867188 365.945312 Z M 282.867188 353.308594 L 285.839844 353.308594 C 286.839844 354.484375 287.335938 355.066406 288.335938 356.199219 L 288.335938 362.628906 C 287.335938 363.65625 286.839844 364.183594 285.839844 365.261719 L 282.867188 365.261719 C 281.867188 364.183594 281.371094 363.65625 280.371094 362.628906 L 280.371094 356.199219 C 281.371094 355.066406 281.867188 354.484375 282.867188 353.308594 Z M 282.867188 339.441406 L 285.839844 339.441406 C 286.839844 340.585938 287.335938 341.171875 288.335938 342.359375 L 288.335938 349.574219 C 287.335938 350.78125 286.839844 351.382812 285.839844 352.566406 L 282.867188 352.566406 C 281.867188 351.382812 281.371094 350.78125 280.371094 349.574219 L 280.371094 342.359375 C 281.371094 341.171875 281.867188 340.585938 282.867188 339.441406 Z M 282.867188 326.710938 L 285.839844 326.710938 C 286.839844 327.875 287.335938 328.445312 288.335938 329.566406 L 288.335938 335.96875 C 287.335938 337.039062 286.839844 337.59375 285.839844 338.726562 L 282.867188 338.726562 C 281.867188 337.59375 281.371094 337.039062 280.371094 335.96875 L 280.371094 329.566406 C 281.371094 328.445312 281.867188 327.875 282.867188 326.710938 Z M 282.867188 312.894531 L 285.839844 312.894531 C 286.839844 314.050781 287.335938 314.640625 288.335938 315.832031 L 288.335938 323.015625 C 287.335938 324.210938 286.839844 324.804688 285.839844 325.976562 L 282.867188 325.976562 C 281.867188 324.804688 281.371094 324.210938 280.371094 323.015625 L 280.371094 315.832031 C 281.371094 314.640625 281.867188 314.050781 282.867188 312.894531 Z M 282.867188 298.914062 L 285.839844 298.914062 C 286.839844 300.0625 287.335938 300.628906 288.335938 301.726562 L 288.335938 309.351562 C 287.335938 310.453125 286.839844 311.015625 285.839844 312.167969 L 282.867188 312.167969 C 281.867188 311.015625 281.371094 310.453125 280.371094 309.351562 L 280.371094 301.726562 C 281.371094 300.628906 281.867188 300.0625 282.867188 298.914062 Z M 282.867188 285.101562 L 285.839844 285.101562 C 286.839844 286.273438 287.335938 286.871094 288.335938 288.066406 L 288.335938 295.246094 C 287.335938 296.4375 286.839844 297.027344 285.839844 298.1875 L 282.867188 298.1875 C 281.867188 297.027344 281.371094 296.4375 280.371094 295.246094 L 280.371094 288.066406 C 281.371094 286.871094 281.867188 286.273438 282.867188 285.101562 Z M 282.867188 272.355469 L 285.839844 272.355469 C 286.839844 273.488281 287.335938 274.042969 288.335938 275.109375 L 288.335938 281.515625 C 287.335938 282.632812 286.839844 283.207031 285.839844 284.367188 L 282.867188 284.367188 C 281.867188 283.207031 281.371094 282.632812 280.371094 281.515625 L 280.371094 275.109375 C 281.371094 274.042969 281.867188 273.488281 282.867188 272.355469 Z M 282.867188 258.515625 L 285.839844 258.515625 C 286.839844 259.699219 287.335938 260.300781 288.335938 261.507812 L 288.335938 268.71875 C 287.335938 269.90625 286.839844 270.492188 285.839844 271.640625 L 282.867188 271.640625 C 281.867188 270.492188 281.371094 269.90625 280.371094 268.71875 L 280.371094 261.507812 C 281.371094 260.300781 281.867188 259.699219 282.867188 258.515625 Z M 280.371094 242.351562 L 280.371094 235.425781 C 281.371094 234.257812 281.867188 233.675781 282.867188 232.515625 L 285.839844 232.515625 C 286.839844 233.675781 287.335938 234.257812 288.335938 235.425781 L 288.335938 242.351562 C 287.335938 243.484375 286.839844 244.042969 285.839844 245.132812 L 282.867188 245.132812 C 281.867188 244.042969 281.371094 243.484375 280.371094 242.351562 Z M 282.867188 245.816406 L 285.839844 245.816406 C 286.839844 246.898438 287.335938 247.425781 288.335938 248.449219 L 288.335938 254.882812 C 287.335938 256.015625 286.839844 256.59375 285.839844 257.769531 L 282.867188 257.769531 C 281.867188 256.59375 281.371094 256.015625 280.371094 254.882812 L 280.371094 248.449219 C 281.371094 247.425781 281.867188 246.898438 282.867188 245.816406 Z M 280.371094 382.140625 C 281.371094 381.015625 281.867188 380.445312 282.867188 379.289062 L 285.839844 379.289062 C 286.839844 380.445312 287.335938 381.015625 288.335938 382.140625 C 288.335938 384.835938 288.347656 386.074219 288.316406 388.609375 C 287.304688 389.664062 286.796875 390.1875 285.773438 391.257812 C 284.582031 391.257812 283.984375 391.257812 282.800781 391.257812 C 281.832031 390.183594 281.347656 389.664062 280.363281 388.605469 C 280.386719 386.074219 280.371094 384.835938 280.371094 382.140625 Z M 276.117188 185.101562 C 276.976562 184.082031 277.417969 183.574219 278.3125 182.554688 C 279.722656 182.558594 280.429688 182.558594 281.835938 182.5625 C 283.261719 183.585938 283.949219 184.101562 285.300781 185.128906 C 285.765625 187.578125 285.957031 188.808594 286.292969 191.246094 C 285.320312 192.265625 284.835938 192.773438 283.882812 193.789062 C 282.585938 193.785156 281.941406 193.785156 280.679688 193.785156 C 279.464844 192.765625 278.851562 192.253906 277.582031 191.230469 C 277.085938 188.78125 276.800781 187.554688 276.117188 185.101562 Z M 279.371094 203.367188 C 279.105469 200.71875 278.949219 199.414062 278.585938 196.960938 C 279.429688 195.933594 279.871094 195.4375 280.773438 194.421875 C 282.03125 194.425781 282.671875 194.425781 283.964844 194.425781 C 285.179688 195.441406 285.773438 195.941406 286.972656 196.957031 C 287.234375 199.398438 287.347656 200.695312 287.542969 203.339844 C 286.570312 204.449219 286.089844 205.007812 285.144531 206.136719 C 283.917969 206.140625 283.308594 206.140625 282.109375 206.148438 C 281.015625 205.027344 280.464844 204.46875 279.371094 203.367188 Z M 295.925781 419.8125 C 295.695312 422.246094 295.570312 423.472656 295.277344 425.921875 C 293.980469 426.949219 293.320312 427.464844 291.96875 428.492188 C 290.546875 428.492188 289.835938 428.496094 288.425781 428.5 C 287.429688 427.480469 286.941406 426.96875 285.972656 425.949219 C 286.425781 423.5 286.613281 422.269531 286.941406 419.828125 C 288.199219 418.808594 288.816406 418.296875 290.039062 417.285156 C 291.371094 417.28125 292.035156 417.28125 293.367188 417.28125 C 294.386719 418.289062 294.894531 418.796875 295.925781 419.8125 Z M 293.429688 416.644531 C 292.101562 416.644531 291.433594 416.644531 290.105469 416.648438 C 289.101562 415.632812 288.59375 415.140625 287.605469 414.121094 C 287.859375 411.683594 287.96875 410.386719 288.15625 407.742188 C 289.289062 406.640625 289.851562 406.082031 290.957031 404.960938 C 292.207031 404.964844 292.835938 404.96875 294.089844 404.972656 C 295.101562 406.101562 295.609375 406.660156 296.632812 407.769531 C 296.554688 410.410156 296.507812 411.703125 296.394531 414.125 C 295.257812 415.132812 294.636719 415.628906 293.429688 416.644531 Z M 337.570312 431.28125 C 337.128906 430.074219 336.6875 428.753906 336.265625 427.324219 C 335.421875 424.464844 334.664062 421.175781 334.132812 417.476562 C 333.734375 414.699219 333.410156 411.878906 333.140625 409.078125 C 332.964844 407.207031 332.8125 405.347656 332.683594 403.515625 C 332.8125 405.347656 332.964844 407.207031 333.140625 409.078125 C 333.410156 411.878906 333.734375 414.699219 334.132812 417.476562 C 334.664062 421.175781 335.421875 424.464844 336.265625 427.324219 C 336.6875 428.753906 337.128906 430.074219 337.570312 431.28125 C 338.234375 433.09375 338.90625 434.652344 339.515625 435.949219 C 338.90625 434.652344 338.234375 433.09375 337.570312 431.28125 Z M 327.597656 431.699219 C 328.558594 430.6875 329.03125 430.175781 329.960938 429.160156 C 331.378906 429.164062 332.085938 429.164062 333.507812 429.167969 C 334.992188 430.191406 335.761719 430.703125 337.382812 431.722656 C 338.285156 434.15625 338.796875 435.363281 339.972656 437.75 C 339.09375 438.75 338.644531 439.246094 337.734375 440.234375 L 333.625 440.234375 C 331.84375 439.242188 330.996094 438.746094 329.359375 437.742188 C 328.558594 435.351562 328.214844 434.136719 327.597656 431.699219 Z M 317.136719 431.679688 C 318.222656 430.660156 318.746094 430.152344 319.777344 429.132812 C 321.207031 429.136719 321.917969 429.140625 323.339844 429.144531 C 324.722656 430.167969 325.429688 430.679688 326.894531 431.699219 C 327.492188 434.136719 327.828125 435.347656 328.605469 437.742188 C 327.632812 438.742188 327.136719 439.242188 326.109375 440.234375 L 322.089844 440.234375 C 320.472656 439.242188 319.691406 438.742188 318.167969 437.738281 C 317.707031 435.332031 317.503906 434.117188 317.136719 431.679688 Z M 306.222656 431.65625 C 307.542969 430.636719 308.160156 430.128906 309.351562 429.109375 C 310.835938 429.113281 311.570312 429.113281 313.03125 429.117188 C 314.351562 430.144531 315.027344 430.65625 316.417969 431.675781 C 316.761719 434.117188 316.957031 435.332031 317.390625 437.734375 C 316.238281 438.738281 315.636719 439.238281 314.355469 440.234375 L 310.015625 440.234375 C 308.457031 439.238281 307.699219 438.734375 306.222656 437.730469 Z M 330.867188 416.65625 C 329.609375 416.65625 328.96875 416.652344 327.675781 416.652344 C 326.464844 415.636719 325.867188 415.140625 324.667969 414.121094 C 324.40625 411.683594 324.292969 410.382812 324.097656 407.738281 C 325.070312 406.632812 325.550781 406.070312 326.496094 404.945312 C 327.722656 404.941406 328.332031 404.9375 329.53125 404.933594 C 330.628906 406.054688 331.175781 406.613281 332.269531 407.714844 C 332.535156 410.363281 332.6875 411.664062 333.054688 414.117188 C 332.210938 415.144531 331.769531 415.640625 330.867188 416.65625 Z M 325.347656 419.832031 C 326.320312 418.816406 326.804688 418.304688 327.757812 417.289062 C 329.054688 417.292969 329.699219 417.292969 330.960938 417.296875 C 332.175781 418.316406 332.789062 418.824219 334.058594 419.851562 C 334.554688 422.296875 334.839844 423.527344 335.523438 425.976562 C 334.664062 426.996094 334.222656 427.507812 333.328125 428.527344 C 331.917969 428.523438 331.210938 428.519531 329.804688 428.515625 C 328.378906 427.492188 327.6875 426.980469 326.339844 425.949219 C 325.875 423.5 325.679688 422.273438 325.347656 419.832031 Z M 318.273438 417.28125 C 319.601562 417.28125 320.269531 417.28125 321.601562 417.285156 C 322.824219 418.296875 323.441406 418.808594 324.699219 419.828125 C 325.027344 422.269531 325.214844 423.5 325.667969 425.949219 C 324.699219 426.96875 324.210938 427.480469 323.214844 428.5 C 321.800781 428.496094 321.09375 428.492188 319.675781 428.492188 C 318.320312 427.464844 317.660156 426.949219 316.363281 425.921875 C 316.070312 423.472656 315.945312 422.246094 315.714844 419.8125 C 316.746094 418.796875 317.253906 418.289062 318.273438 417.28125 Z M 315.246094 414.125 C 315.132812 411.703125 315.085938 410.410156 315.007812 407.769531 C 316.03125 406.660156 316.539062 406.101562 317.550781 404.972656 C 318.804688 404.96875 319.429688 404.964844 320.683594 404.960938 C 321.789062 406.082031 322.351562 406.640625 323.484375 407.742188 C 323.671875 410.386719 323.78125 411.683594 324.035156 414.121094 C 323.046875 415.140625 322.539062 415.632812 321.535156 416.648438 C 320.207031 416.644531 319.539062 416.644531 318.210938 416.644531 C 317.003906 415.628906 316.382812 415.132812 315.246094 414.125 Z M 308.863281 417.265625 C 310.136719 417.269531 310.785156 417.269531 312.089844 417.269531 C 313.25 418.28125 313.847656 418.789062 315.0625 419.8125 C 315.28125 422.246094 315.402344 423.472656 315.679688 425.921875 C 314.625 426.941406 314.085938 427.453125 312.96875 428.472656 C 311.519531 428.46875 310.789062 428.46875 309.320312 428.464844 C 308.039062 427.4375 307.417969 426.921875 306.222656 425.898438 L 306.222656 419.792969 C 307.304688 418.78125 307.828125 418.273438 308.863281 417.265625 Z M 308.703125 405 C 309.902344 404.996094 310.511719 404.996094 311.738281 404.992188 C 312.78125 406.113281 313.308594 406.667969 314.394531 407.769531 C 314.464844 410.410156 314.507812 411.703125 314.609375 414.125 C 313.5625 415.132812 313.078125 415.628906 312.050781 416.636719 C 310.753906 416.632812 310.105469 416.632812 308.839844 416.632812 C 307.746094 415.625 307.21875 415.128906 306.222656 414.125 L 306.222656 407.796875 C 307.207031 406.691406 307.703125 406.128906 308.703125 405 Z M 308.695312 391.949219 C 309.882812 391.949219 310.476562 391.949219 311.671875 391.945312 C 312.671875 393.03125 313.171875 393.582031 314.1875 394.691406 C 314.203125 397.351562 314.21875 398.726562 314.261719 401.445312 C 313.25 402.582031 312.746094 403.152344 311.730469 404.285156 C 310.507812 404.289062 309.898438 404.289062 308.703125 404.292969 C 307.695312 403.167969 307.199219 402.601562 306.222656 401.46875 L 306.222656 394.703125 C 307.203125 393.585938 307.699219 393.035156 308.695312 391.949219 Z M 308.714844 379.289062 L 311.691406 379.289062 C 312.6875 380.445312 313.1875 381.015625 314.183594 382.140625 C 314.183594 384.835938 314.183594 386.074219 314.175781 388.609375 C 313.175781 389.667969 312.675781 390.191406 311.671875 391.265625 C 310.476562 391.269531 309.882812 391.269531 308.699219 391.269531 C 307.707031 390.191406 307.214844 389.671875 306.222656 388.609375 L 306.222656 382.140625 C 307.21875 381.015625 307.71875 380.445312 308.714844 379.289062 Z M 308.714844 365.945312 L 311.691406 365.945312 C 312.6875 367.039062 313.1875 367.597656 314.183594 368.730469 L 314.183594 375.652344 C 313.1875 376.820312 312.6875 377.40625 311.691406 378.5625 L 308.714844 378.5625 C 307.71875 377.40625 307.21875 376.820312 306.222656 375.652344 L 306.222656 368.730469 C 307.21875 367.597656 307.71875 367.039062 308.714844 365.945312 Z M 308.714844 353.308594 L 311.691406 353.308594 C 312.6875 354.484375 313.1875 355.066406 314.183594 356.199219 L 314.183594 362.628906 C 313.1875 363.65625 312.6875 364.183594 311.691406 365.261719 L 308.714844 365.261719 C 307.71875 364.183594 307.21875 363.65625 306.222656 362.628906 L 306.222656 356.199219 C 307.21875 355.066406 307.71875 354.484375 308.714844 353.308594 Z M 308.714844 339.441406 L 311.691406 339.441406 C 312.6875 340.585938 313.1875 341.171875 314.183594 342.359375 L 314.183594 349.574219 C 313.1875 350.78125 312.6875 351.382812 311.691406 352.566406 L 308.714844 352.566406 C 307.71875 351.382812 307.21875 350.78125 306.222656 349.574219 L 306.222656 342.359375 C 307.21875 341.171875 307.71875 340.585938 308.714844 339.441406 Z M 308.714844 326.710938 L 311.691406 326.710938 C 312.6875 327.875 313.1875 328.445312 314.183594 329.566406 L 314.183594 335.96875 C 313.1875 337.039062 312.6875 337.59375 311.691406 338.726562 L 308.714844 338.726562 C 307.71875 337.59375 307.21875 337.039062 306.222656 335.96875 L 306.222656 329.566406 C 307.21875 328.445312 307.71875 327.875 308.714844 326.710938 Z M 308.714844 312.894531 L 311.691406 312.894531 C 312.6875 314.050781 313.1875 314.640625 314.183594 315.832031 L 314.183594 323.015625 C 313.1875 324.210938 312.6875 324.804688 311.691406 325.976562 L 308.714844 325.976562 C 307.71875 324.804688 307.21875 324.210938 306.222656 323.015625 L 306.222656 315.832031 C 307.21875 314.640625 307.71875 314.050781 308.714844 312.894531 Z M 308.714844 298.914062 L 311.691406 298.914062 C 312.6875 300.0625 313.1875 300.628906 314.183594 301.726562 L 314.183594 309.351562 C 313.1875 310.453125 312.6875 311.015625 311.691406 312.167969 L 308.714844 312.167969 C 307.71875 311.015625 307.21875 310.453125 306.222656 309.351562 L 306.222656 301.726562 C 307.21875 300.628906 307.71875 300.0625 308.714844 298.914062 Z M 308.714844 285.101562 L 311.691406 285.101562 C 312.6875 286.273438 313.1875 286.871094 314.183594 288.066406 L 314.183594 295.246094 C 313.1875 296.4375 312.6875 297.027344 311.691406 298.1875 L 308.714844 298.1875 C 307.71875 297.027344 307.21875 296.4375 306.222656 295.246094 L 306.222656 288.066406 C 307.21875 286.871094 307.71875 286.273438 308.714844 285.101562 Z M 308.714844 272.355469 L 311.691406 272.355469 C 312.6875 273.488281 313.1875 274.042969 314.183594 275.109375 L 314.183594 281.515625 C 313.1875 282.632812 312.6875 283.207031 311.691406 284.367188 L 308.714844 284.367188 C 307.71875 283.207031 307.21875 282.632812 306.222656 281.515625 L 306.222656 275.109375 C 307.21875 274.042969 307.71875 273.488281 308.714844 272.355469 Z M 308.714844 258.515625 L 311.691406 258.515625 C 312.6875 259.699219 313.1875 260.300781 314.183594 261.507812 L 314.183594 268.71875 C 313.1875 269.90625 312.6875 270.492188 311.691406 271.640625 L 308.714844 271.640625 C 307.71875 270.492188 307.21875 269.90625 306.222656 268.71875 L 306.222656 261.507812 C 307.21875 260.300781 307.71875 259.699219 308.714844 258.515625 Z M 308.714844 245.816406 L 311.691406 245.816406 C 312.6875 246.898438 313.1875 247.425781 314.183594 248.449219 L 314.183594 254.882812 C 313.1875 256.015625 312.6875 256.59375 311.691406 257.769531 L 308.714844 257.769531 C 307.71875 256.59375 307.21875 256.015625 306.222656 254.882812 L 306.222656 248.449219 C 307.21875 247.425781 307.71875 246.898438 308.714844 245.816406 Z M 308.714844 232.515625 L 311.691406 232.515625 C 312.6875 233.675781 313.1875 234.257812 314.183594 235.425781 L 314.183594 242.351562 C 313.1875 243.484375 312.6875 244.042969 311.691406 245.132812 L 308.714844 245.132812 C 307.71875 244.042969 307.21875 243.484375 306.222656 242.351562 L 306.222656 235.425781 C 307.21875 234.257812 307.71875 233.675781 308.714844 232.515625 Z M 308.699219 219.8125 C 309.882812 219.8125 310.476562 219.8125 311.671875 219.8125 C 312.675781 220.890625 313.175781 221.410156 314.175781 222.46875 C 314.183594 225.007812 314.183594 226.242188 314.183594 228.9375 C 313.1875 230.0625 312.6875 230.636719 311.691406 231.789062 L 308.714844 231.789062 C 307.71875 230.636719 307.21875 230.0625 306.222656 228.9375 L 306.222656 222.46875 C 307.214844 221.410156 307.707031 220.886719 308.699219 219.8125 Z M 308.703125 206.785156 C 309.898438 206.789062 310.507812 206.792969 311.730469 206.796875 C 312.746094 207.925781 313.25 208.496094 314.261719 209.632812 C 314.21875 212.351562 314.203125 213.726562 314.1875 216.386719 C 313.171875 217.496094 312.671875 218.046875 311.671875 219.132812 C 310.476562 219.132812 309.882812 219.132812 308.695312 219.128906 C 307.699219 218.042969 307.203125 217.492188 306.222656 216.375 L 306.222656 209.609375 C 307.199219 208.476562 307.695312 207.910156 308.703125 206.785156 Z M 308.839844 194.445312 C 310.105469 194.445312 310.753906 194.445312 312.050781 194.445312 C 313.078125 195.449219 313.5625 195.945312 314.609375 196.957031 C 314.507812 199.375 314.464844 200.667969 314.394531 203.308594 C 313.308594 204.410156 312.78125 204.964844 311.738281 206.085938 C 310.511719 206.082031 309.902344 206.082031 308.703125 206.078125 C 307.703125 204.949219 307.207031 204.390625 306.222656 203.285156 L 306.222656 196.953125 C 307.21875 195.949219 307.746094 195.453125 308.839844 194.445312 Z M 309.320312 182.617188 C 310.789062 182.613281 311.519531 182.609375 312.96875 182.605469 C 314.085938 183.625 314.625 184.136719 315.679688 185.15625 C 315.402344 187.609375 315.28125 188.832031 315.0625 191.269531 C 313.847656 192.289062 313.25 192.796875 312.089844 193.808594 C 310.785156 193.808594 310.136719 193.8125 308.863281 193.8125 C 307.828125 192.804688 307.304688 192.300781 306.222656 191.285156 L 306.222656 185.183594 C 307.417969 184.15625 308.039062 183.640625 309.320312 182.617188 Z M 316.417969 179.402344 C 315.027344 180.425781 314.351562 180.9375 313.03125 181.960938 C 311.570312 181.964844 310.835938 181.96875 309.351562 181.972656 C 308.160156 180.953125 307.542969 180.441406 306.222656 179.421875 L 306.222656 173.351562 C 307.699219 172.34375 308.457031 171.84375 310.015625 170.84375 L 314.355469 170.84375 C 315.636719 171.839844 316.238281 172.339844 317.390625 173.34375 C 316.957031 175.746094 316.761719 176.960938 316.417969 179.402344 Z M 326.894531 179.378906 C 325.429688 180.402344 324.722656 180.910156 323.339844 181.9375 C 321.917969 181.941406 321.207031 181.941406 319.777344 181.945312 C 318.746094 180.925781 318.222656 180.417969 317.136719 179.402344 C 317.503906 176.960938 317.707031 175.746094 318.167969 173.34375 C 319.691406 172.339844 320.472656 171.839844 322.089844 170.84375 L 326.109375 170.84375 C 327.136719 171.835938 327.632812 172.335938 328.605469 173.335938 C 327.828125 175.730469 327.492188 176.945312 326.894531 179.378906 Z M 333.507812 181.910156 C 332.085938 181.914062 331.378906 181.917969 329.960938 181.921875 C 329.03125 180.902344 328.558594 180.394531 327.597656 179.378906 C 328.214844 176.941406 328.558594 175.730469 329.359375 173.335938 C 330.996094 172.332031 331.84375 171.835938 333.625 170.84375 L 337.734375 170.84375 C 338.644531 171.832031 339.09375 172.332031 339.972656 173.328125 C 338.796875 175.714844 338.285156 176.925781 337.382812 179.359375 C 335.761719 180.375 334.992188 180.886719 333.507812 181.910156 Z M 330.960938 193.785156 C 329.699219 193.785156 329.054688 193.785156 327.757812 193.789062 C 326.804688 192.773438 326.320312 192.265625 325.347656 191.246094 C 325.679688 188.808594 325.875 187.578125 326.339844 185.128906 C 327.6875 184.101562 328.378906 183.585938 329.804688 182.5625 C 331.210938 182.558594 331.917969 182.558594 333.328125 182.554688 C 334.222656 183.574219 334.664062 184.082031 335.523438 185.101562 C 334.839844 187.554688 334.554688 188.78125 334.058594 191.230469 C 332.789062 192.253906 332.175781 192.765625 330.960938 193.785156 Z M 331.414062 216.410156 C 330.390625 217.519531 329.878906 218.066406 328.855469 219.144531 C 327.671875 219.144531 327.078125 219.144531 325.882812 219.144531 C 324.910156 218.0625 324.425781 217.511719 323.445312 216.402344 C 323.523438 213.746094 323.578125 212.375 323.710938 209.664062 C 324.796875 208.53125 325.34375 207.96875 326.449219 206.84375 C 327.671875 206.847656 328.277344 206.851562 329.476562 206.855469 C 330.394531 207.984375 330.847656 208.550781 331.75 209.6875 C 331.574219 212.398438 331.507812 213.765625 331.414062 216.410156 Z M 325.882812 391.9375 C 327.078125 391.9375 327.671875 391.933594 328.855469 391.933594 C 329.878906 393.015625 330.390625 393.5625 331.414062 394.667969 C 331.507812 397.316406 331.574219 398.683594 331.75 401.390625 C 330.847656 402.527344 330.394531 403.09375 329.476562 404.226562 C 328.277344 404.230469 327.671875 404.230469 326.449219 404.234375 C 325.34375 403.113281 324.796875 402.546875 323.710938 401.417969 C 323.578125 398.703125 323.523438 397.332031 323.445312 394.679688 C 324.425781 393.570312 324.910156 393.019531 325.882812 391.9375 Z M 323.304688 382.140625 C 324.300781 381.015625 324.800781 380.445312 325.800781 379.289062 L 328.773438 379.289062 C 329.773438 380.445312 330.269531 381.015625 331.269531 382.140625 C 331.269531 384.835938 331.253906 386.074219 331.277344 388.605469 C 330.292969 389.664062 329.808594 390.183594 328.839844 391.257812 C 327.65625 391.257812 327.058594 391.257812 325.867188 391.257812 C 324.84375 390.1875 324.335938 389.664062 323.324219 388.609375 C 323.292969 386.074219 323.304688 384.835938 323.304688 382.140625 Z M 328.773438 245.132812 L 325.800781 245.132812 C 324.800781 244.042969 324.300781 243.484375 323.304688 242.351562 L 323.304688 235.425781 C 324.300781 234.257812 324.800781 233.675781 325.800781 232.515625 L 328.773438 232.515625 C 329.773438 233.675781 330.269531 234.257812 331.269531 235.425781 L 331.269531 242.351562 C 330.269531 243.484375 329.773438 244.042969 328.773438 245.132812 Z M 328.773438 257.769531 L 325.800781 257.769531 C 324.800781 256.59375 324.300781 256.015625 323.304688 254.882812 L 323.304688 248.449219 C 324.300781 247.425781 324.800781 246.898438 325.800781 245.816406 L 328.773438 245.816406 C 329.773438 246.898438 330.269531 247.425781 331.269531 248.449219 L 331.269531 254.882812 C 330.269531 256.015625 329.773438 256.59375 328.773438 257.769531 Z M 328.773438 271.640625 L 325.800781 271.640625 C 324.800781 270.492188 324.300781 269.90625 323.304688 268.71875 L 323.304688 261.507812 C 324.300781 260.300781 324.800781 259.699219 325.800781 258.515625 L 328.773438 258.515625 C 329.773438 259.699219 330.269531 260.300781 331.269531 261.507812 L 331.269531 268.71875 C 330.269531 269.90625 329.773438 270.492188 328.773438 271.640625 Z M 328.773438 284.367188 L 325.800781 284.367188 C 324.800781 283.207031 324.300781 282.632812 323.304688 281.515625 L 323.304688 275.109375 C 324.300781 274.042969 324.800781 273.488281 325.800781 272.355469 L 328.773438 272.355469 C 329.773438 273.488281 330.269531 274.042969 331.269531 275.109375 L 331.269531 281.515625 C 330.269531 282.632812 329.773438 283.207031 328.773438 284.367188 Z M 328.773438 298.1875 L 325.800781 298.1875 C 324.800781 297.027344 324.300781 296.4375 323.304688 295.246094 L 323.304688 288.066406 C 324.300781 286.871094 324.800781 286.273438 325.800781 285.101562 L 328.773438 285.101562 C 329.773438 286.273438 330.269531 286.871094 331.269531 288.066406 L 331.269531 295.246094 C 330.269531 296.4375 329.773438 297.027344 328.773438 298.1875 Z M 328.773438 312.167969 L 325.800781 312.167969 C 324.800781 311.015625 324.300781 310.453125 323.304688 309.351562 L 323.304688 301.726562 C 324.300781 300.628906 324.800781 300.0625 325.800781 298.914062 L 328.773438 298.914062 C 329.773438 300.0625 330.269531 300.628906 331.269531 301.726562 L 331.269531 309.351562 C 330.269531 310.453125 329.773438 311.015625 328.773438 312.167969 Z M 328.773438 325.976562 L 325.800781 325.976562 C 324.800781 324.804688 324.300781 324.210938 323.304688 323.015625 L 323.304688 315.832031 C 324.300781 314.640625 324.800781 314.050781 325.800781 312.894531 L 328.773438 312.894531 C 329.773438 314.050781 330.269531 314.640625 331.269531 315.832031 L 331.269531 323.015625 C 330.269531 324.210938 329.773438 324.804688 328.773438 325.976562 Z M 328.773438 338.726562 L 325.800781 338.726562 C 324.800781 337.59375 324.300781 337.039062 323.304688 335.96875 L 323.304688 329.566406 C 324.300781 328.445312 324.800781 327.875 325.800781 326.710938 L 328.773438 326.710938 C 329.773438 327.875 330.269531 328.445312 331.269531 329.566406 L 331.269531 335.96875 C 330.269531 337.039062 329.773438 337.59375 328.773438 338.726562 Z M 328.773438 352.566406 L 325.800781 352.566406 C 324.800781 351.382812 324.300781 350.78125 323.304688 349.574219 L 323.304688 342.359375 C 324.300781 341.171875 324.800781 340.585938 325.800781 339.441406 L 328.773438 339.441406 C 329.773438 340.585938 330.269531 341.171875 331.269531 342.359375 L 331.269531 349.574219 C 330.269531 350.78125 329.773438 351.382812 328.773438 352.566406 Z M 331.269531 368.730469 L 331.269531 375.652344 C 330.269531 376.820312 329.773438 377.40625 328.773438 378.5625 L 325.800781 378.5625 C 324.800781 377.40625 324.300781 376.820312 323.304688 375.652344 L 323.304688 368.730469 C 324.300781 367.597656 324.800781 367.039062 325.800781 365.945312 L 328.773438 365.945312 C 329.773438 367.039062 330.269531 367.597656 331.269531 368.730469 Z M 328.773438 365.261719 L 325.800781 365.261719 C 324.800781 364.183594 324.300781 363.65625 323.304688 362.628906 L 323.304688 356.199219 C 324.300781 355.066406 324.800781 354.484375 325.800781 353.308594 L 328.773438 353.308594 C 329.773438 354.484375 330.269531 355.066406 331.269531 356.199219 L 331.269531 362.628906 C 330.269531 363.65625 329.773438 364.183594 328.773438 365.261719 Z M 331.269531 228.9375 C 330.269531 230.0625 329.773438 230.636719 328.773438 231.789062 L 325.800781 231.789062 C 324.800781 230.636719 324.300781 230.0625 323.304688 228.9375 C 323.304688 226.242188 323.292969 225.003906 323.324219 222.472656 C 324.335938 221.414062 324.84375 220.894531 325.867188 219.820312 C 327.058594 219.820312 327.65625 219.824219 328.839844 219.824219 C 329.808594 220.894531 330.292969 221.414062 331.277344 222.472656 C 331.253906 225.003906 331.269531 226.242188 331.269531 228.9375 Z M 315.714844 191.269531 C 315.945312 188.832031 316.070312 187.605469 316.363281 185.15625 C 317.660156 184.128906 318.320312 183.613281 319.675781 182.589844 C 321.09375 182.585938 321.800781 182.582031 323.214844 182.578125 C 324.210938 183.597656 324.699219 184.109375 325.667969 185.128906 C 325.214844 187.582031 325.027344 188.808594 324.699219 191.25 C 323.441406 192.269531 322.824219 192.78125 321.601562 193.796875 C 320.269531 193.796875 319.601562 193.796875 318.273438 193.800781 C 317.253906 192.789062 316.746094 192.28125 315.714844 191.269531 Z M 320.683594 206.117188 C 319.429688 206.113281 318.804688 206.109375 317.550781 206.105469 C 316.539062 204.980469 316.03125 204.417969 315.007812 203.3125 C 315.085938 200.671875 315.132812 199.375 315.246094 196.957031 C 316.382812 195.945312 317.003906 195.449219 318.210938 194.4375 C 319.539062 194.4375 320.207031 194.433594 321.535156 194.433594 C 322.539062 195.445312 323.046875 195.9375 324.035156 196.957031 C 323.78125 199.394531 323.671875 200.695312 323.484375 203.335938 C 322.351562 204.441406 321.789062 204.996094 320.683594 206.117188 Z M 322.859375 216.398438 C 321.816406 217.507812 321.300781 218.058594 320.28125 219.140625 C 319.078125 219.140625 318.476562 219.140625 317.273438 219.136719 C 316.277344 218.054688 315.777344 217.5 314.773438 216.390625 C 314.792969 213.726562 314.808594 212.355469 314.859375 209.636719 C 315.910156 208.503906 316.441406 207.9375 317.527344 206.816406 C 318.773438 206.820312 319.402344 206.820312 320.652344 206.824219 C 321.644531 207.957031 322.136719 208.523438 323.113281 209.660156 C 322.984375 212.375 322.933594 213.746094 322.859375 216.398438 Z M 317.273438 391.941406 C 318.476562 391.941406 319.078125 391.941406 320.28125 391.941406 C 321.300781 393.023438 321.816406 393.570312 322.859375 394.679688 C 322.933594 397.332031 322.984375 398.703125 323.113281 401.417969 C 322.136719 402.554688 321.644531 403.125 320.652344 404.253906 C 319.402344 404.257812 318.773438 404.261719 317.527344 404.265625 C 316.441406 403.140625 315.910156 402.574219 314.859375 401.441406 C 314.808594 398.726562 314.792969 397.351562 314.773438 394.691406 C 315.777344 393.578125 316.277344 393.027344 317.273438 391.941406 Z M 314.761719 382.140625 C 315.761719 381.015625 316.257812 380.445312 317.257812 379.289062 L 320.234375 379.289062 C 321.230469 380.445312 321.730469 381.015625 322.726562 382.140625 C 322.726562 384.835938 322.714844 386.074219 322.742188 388.609375 C 321.753906 389.667969 321.261719 390.1875 320.269531 391.261719 C 319.070312 391.261719 318.46875 391.261719 317.269531 391.265625 C 316.257812 390.191406 315.753906 389.667969 314.757812 388.609375 C 314.761719 386.074219 314.761719 384.835938 314.761719 382.140625 Z M 320.234375 245.132812 L 317.257812 245.132812 C 316.257812 244.042969 315.761719 243.484375 314.761719 242.351562 L 314.761719 235.425781 C 315.761719 234.257812 316.257812 233.675781 317.257812 232.515625 L 320.234375 232.515625 C 321.230469 233.675781 321.730469 234.257812 322.726562 235.425781 L 322.726562 242.351562 C 321.730469 243.484375 321.230469 244.042969 320.234375 245.132812 Z M 320.234375 257.769531 L 317.257812 257.769531 C 316.257812 256.59375 315.761719 256.015625 314.761719 254.882812 L 314.761719 248.449219 C 315.761719 247.425781 316.257812 246.898438 317.257812 245.816406 L 320.234375 245.816406 C 321.230469 246.898438 321.730469 247.425781 322.726562 248.449219 L 322.726562 254.882812 C 321.730469 256.015625 321.230469 256.59375 320.234375 257.769531 Z M 320.234375 271.640625 L 317.257812 271.640625 C 316.257812 270.492188 315.761719 269.90625 314.761719 268.71875 L 314.761719 261.507812 C 315.761719 260.300781 316.257812 259.699219 317.257812 258.515625 L 320.234375 258.515625 C 321.230469 259.699219 321.730469 260.300781 322.726562 261.507812 L 322.726562 268.71875 C 321.730469 269.90625 321.230469 270.492188 320.234375 271.640625 Z M 320.234375 284.367188 L 317.257812 284.367188 C 316.257812 283.207031 315.761719 282.632812 314.761719 281.515625 L 314.761719 275.109375 C 315.761719 274.042969 316.257812 273.488281 317.257812 272.355469 L 320.234375 272.355469 C 321.230469 273.488281 321.730469 274.042969 322.726562 275.109375 L 322.726562 281.515625 C 321.730469 282.632812 321.230469 283.207031 320.234375 284.367188 Z M 320.234375 298.1875 L 317.257812 298.1875 C 316.257812 297.027344 315.761719 296.4375 314.761719 295.246094 L 314.761719 288.066406 C 315.761719 286.871094 316.257812 286.273438 317.257812 285.101562 L 320.234375 285.101562 C 321.230469 286.273438 321.730469 286.871094 322.726562 288.066406 L 322.726562 295.246094 C 321.730469 296.4375 321.230469 297.027344 320.234375 298.1875 Z M 320.234375 312.167969 L 317.257812 312.167969 C 316.257812 311.015625 315.761719 310.453125 314.761719 309.351562 L 314.761719 301.726562 C 315.761719 300.628906 316.257812 300.0625 317.257812 298.914062 L 320.234375 298.914062 C 321.230469 300.0625 321.730469 300.628906 322.726562 301.726562 L 322.726562 309.351562 C 321.730469 310.453125 321.230469 311.015625 320.234375 312.167969 Z M 320.234375 325.976562 L 317.257812 325.976562 C 316.257812 324.804688 315.761719 324.210938 314.761719 323.015625 L 314.761719 315.832031 C 315.761719 314.640625 316.257812 314.050781 317.257812 312.894531 L 320.234375 312.894531 C 321.230469 314.050781 321.730469 314.640625 322.726562 315.832031 L 322.726562 323.015625 C 321.730469 324.210938 321.230469 324.804688 320.234375 325.976562 Z M 320.234375 338.726562 L 317.257812 338.726562 C 316.257812 337.59375 315.761719 337.039062 314.761719 335.96875 L 314.761719 329.566406 C 315.761719 328.445312 316.257812 327.875 317.257812 326.710938 L 320.234375 326.710938 C 321.230469 327.875 321.730469 328.445312 322.726562 329.566406 L 322.726562 335.96875 C 321.730469 337.039062 321.230469 337.59375 320.234375 338.726562 Z M 320.234375 352.566406 L 317.257812 352.566406 C 316.257812 351.382812 315.761719 350.78125 314.761719 349.574219 L 314.761719 342.359375 C 315.761719 341.171875 316.257812 340.585938 317.257812 339.441406 L 320.234375 339.441406 C 321.230469 340.585938 321.730469 341.171875 322.726562 342.359375 L 322.726562 349.574219 C 321.730469 350.78125 321.230469 351.382812 320.234375 352.566406 Z M 322.726562 368.730469 L 322.726562 375.652344 C 321.730469 376.820312 321.230469 377.40625 320.234375 378.5625 L 317.257812 378.5625 C 316.257812 377.40625 315.761719 376.820312 314.761719 375.652344 L 314.761719 368.730469 C 315.761719 367.597656 316.257812 367.039062 317.257812 365.945312 L 320.234375 365.945312 C 321.230469 367.039062 321.730469 367.597656 322.726562 368.730469 Z M 320.234375 365.261719 L 317.257812 365.261719 C 316.257812 364.183594 315.761719 363.65625 314.761719 362.628906 L 314.761719 356.199219 C 315.761719 355.066406 316.257812 354.484375 317.257812 353.308594 L 320.234375 353.308594 C 321.230469 354.484375 321.730469 355.066406 322.726562 356.199219 L 322.726562 362.628906 C 321.730469 363.65625 321.230469 364.183594 320.234375 365.261719 Z M 322.726562 228.9375 C 321.730469 230.0625 321.230469 230.636719 320.234375 231.789062 L 317.257812 231.789062 C 316.257812 230.636719 315.761719 230.0625 314.761719 228.9375 C 314.761719 226.242188 314.761719 225.007812 314.757812 222.46875 C 315.753906 221.410156 316.257812 220.890625 317.269531 219.816406 C 318.46875 219.816406 319.070312 219.816406 320.269531 219.816406 C 321.261719 220.890625 321.753906 221.414062 322.742188 222.472656 C 322.714844 225.007812 322.726562 226.242188 322.726562 228.9375 Z M 329.53125 206.148438 C 328.332031 206.140625 327.722656 206.140625 326.496094 206.136719 C 325.550781 205.007812 325.070312 204.449219 324.097656 203.339844 C 324.292969 200.695312 324.40625 199.398438 324.667969 196.957031 C 325.867188 195.941406 326.464844 195.441406 327.675781 194.425781 C 328.96875 194.425781 329.609375 194.425781 330.867188 194.421875 C 331.769531 195.4375 332.210938 195.933594 333.054688 196.960938 C 332.6875 199.414062 332.535156 200.71875 332.269531 203.367188 C 331.175781 204.46875 330.628906 205.027344 329.53125 206.148438 Z M 477.597656 355.332031 C 476.828125 335.566406 467.816406 321.539062 449.289062 310.988281 C 430.757812 300.433594 409.214844 300.464844 401.46875 300.464844 L 341.722656 300.464844 L 341.722656 296.832031 L 395.0625 296.832031 C 400.34375 296.832031 406.164062 296.921875 412.191406 296.542969 C 425.757812 295.136719 444.308594 290.394531 456.066406 275.898438 C 456.894531 274.859375 457.710938 273.785156 458.503906 272.636719 C 468.078125 258.40625 468.5 245.0625 465.242188 234.359375 C 461.824219 223.691406 454.957031 216.085938 449.625 211.769531 C 448.355469 210.742188 447.03125 209.742188 445.617188 208.78125 C 442.785156 206.855469 439.601562 205.066406 435.8125 203.445312 C 433.917969 202.632812 431.875 201.863281 429.644531 201.136719 C 429.632812 201.132812 429.617188 201.125 429.601562 201.121094 C 429.28125 201.015625 428.945312 200.917969 428.613281 200.8125 C 428.328125 200.726562 428.046875 200.640625 427.757812 200.554688 C 427.695312 200.535156 427.632812 200.519531 427.570312 200.5 C 423.351562 199.289062 418.59375 198.339844 413.089844 197.714844 C 412.988281 197.703125 412.886719 197.691406 412.78125 197.679688 C 412.242188 197.621094 411.6875 197.566406 411.132812 197.511719 C 410.902344 197.488281 410.675781 197.464844 410.441406 197.445312 C 409.960938 197.402344 409.46875 197.359375 408.976562 197.320312 C 408.652344 197.292969 408.324219 197.269531 407.992188 197.246094 C 407.554688 197.214844 407.109375 197.183594 406.664062 197.15625 C 406.257812 197.128906 405.84375 197.109375 405.429688 197.085938 C 405.023438 197.0625 404.621094 197.039062 404.207031 197.023438 C 403.726562 197 403.238281 196.980469 402.746094 196.964844 C 402.371094 196.949219 402 196.933594 401.621094 196.921875 C 401.042969 196.90625 400.457031 196.894531 399.863281 196.882812 C 399.546875 196.875 399.234375 196.867188 398.910156 196.863281 C 397.988281 196.847656 397.050781 196.839844 396.089844 196.839844 L 357.226562 196.839844 C 357.226562 196.839844 354.140625 196.582031 353.496094 200.445312 C 353.457031 200.675781 353.410156 200.96875 353.355469 201.304688 C 353.316406 201.558594 353.269531 201.859375 353.222656 202.164062 C 353.207031 202.261719 353.195312 202.339844 353.179688 202.441406 C 353.132812 202.722656 353.085938 203.039062 353.039062 203.355469 C 353.007812 203.53125 352.984375 203.695312 352.957031 203.882812 C 352.113281 209.367188 350.722656 218.742188 350.21875 222.15625 C 350.214844 222.171875 350.214844 222.183594 350.210938 222.199219 C 350.09375 222.984375 350.023438 223.480469 350.023438 223.480469 C 349.875 223.5625 350.429688 240.078125 349.53125 250.246094 C 349.417969 251.527344 352.34375 248.859375 352.941406 248.089844 C 353.4375 247.449219 354.933594 244.582031 359.699219 226.179688 C 364.460938 207.777344 380.09375 205.785156 387.171875 205.785156 C 409.648438 205.785156 432.039062 215.464844 432.039062 244.351562 C 432.039062 272.355469 411.496094 285.507812 383.632812 285.507812 L 341.722656 285.507812 L 341.722656 233.773438 C 341.722656 220.90625 341.464844 213.570312 343.914062 201.085938 C 346.355469 188.605469 350.859375 182.296875 360.253906 175.351562 C 369.648438 168.402344 386.765625 167.242188 388.4375 166.339844 C 390.109375 165.441406 393.199219 161 393.199219 161 L 218.441406 161 C 218.441406 161 221.53125 165.441406 223.203125 166.339844 C 224.875 167.242188 241.992188 168.402344 251.386719 175.351562 C 260.78125 182.296875 265.285156 188.605469 267.730469 201.085938 C 270.175781 213.570312 269.917969 220.90625 269.917969 233.773438 L 269.917969 285.507812 L 228.007812 285.507812 C 200.148438 285.507812 179.601562 272.355469 179.601562 244.351562 C 179.601562 215.464844 201.992188 205.785156 224.46875 205.785156 C 231.546875 205.785156 247.179688 207.777344 251.941406 226.179688 C 256.703125 244.582031 258.203125 247.449219 258.699219 248.089844 C 259.292969 248.859375 262.222656 251.527344 262.109375 250.246094 C 261.210938 240.078125 261.765625 223.5625 261.617188 223.480469 C 261.617188 223.480469 261.546875 222.984375 261.429688 222.199219 C 261.425781 222.183594 261.425781 222.171875 261.421875 222.15625 C 260.917969 218.742188 259.527344 209.367188 258.683594 203.882812 C 258.65625 203.695312 258.632812 203.53125 258.601562 203.355469 C 258.554688 203.039062 258.507812 202.722656 258.460938 202.441406 C 258.445312 202.339844 258.433594 202.261719 258.417969 202.164062 C 258.371094 201.859375 258.324219 201.558594 258.285156 201.304688 C 258.230469 200.96875 258.183594 200.675781 258.144531 200.445312 C 257.5 196.582031 254.414062 196.839844 254.414062 196.839844 L 215.550781 196.839844 C 214.589844 196.839844 213.652344 196.847656 212.730469 196.863281 C 212.40625 196.867188 212.09375 196.875 211.777344 196.882812 C 211.1875 196.894531 210.597656 196.90625 210.019531 196.921875 C 209.640625 196.933594 209.269531 196.949219 208.894531 196.964844 C 208.402344 196.980469 207.914062 197 207.433594 197.023438 C 207.019531 197.039062 206.617188 197.0625 206.210938 197.085938 C 205.796875 197.109375 205.382812 197.128906 204.976562 197.15625 C 204.53125 197.183594 204.085938 197.214844 203.648438 197.246094 C 203.316406 197.269531 202.988281 197.292969 202.660156 197.320312 C 202.171875 197.359375 201.679688 197.402344 201.199219 197.445312 C 200.964844 197.464844 200.738281 197.488281 200.507812 197.511719 C 199.953125 197.566406 199.398438 197.621094 198.859375 197.679688 C 198.753906 197.691406 198.652344 197.703125 198.550781 197.714844 C 193.046875 198.339844 188.289062 199.289062 184.070312 200.5 C 184.007812 200.519531 183.945312 200.535156 183.882812 200.554688 C 183.59375 200.640625 183.3125 200.726562 183.027344 200.8125 C 182.695312 200.917969 182.359375 201.015625 182.039062 201.121094 C 182.023438 201.125 182.007812 201.132812 181.996094 201.136719 C 179.765625 201.863281 177.722656 202.632812 175.828125 203.445312 C 172.039062 205.066406 168.855469 206.855469 166.023438 208.78125 C 164.609375 209.742188 163.285156 210.742188 162.015625 211.769531 C 156.683594 216.085938 149.816406 223.691406 146.398438 234.359375 C 143.140625 245.0625 143.5625 258.40625 153.136719 272.636719 C 153.929688 273.785156 154.746094 274.859375 155.574219 275.898438 C 167.332031 290.394531 185.882812 295.136719 199.449219 296.542969 C 205.476562 296.921875 211.296875 296.832031 216.578125 296.832031 L 269.917969 296.832031 L 269.917969 300.464844 L 210.171875 300.464844 C 202.425781 300.464844 180.882812 300.433594 162.351562 310.988281 C 143.824219 321.539062 134.8125 335.566406 134.042969 355.332031 C 133.269531 375.09375 142.921875 389.484375 157.464844 399.265625 C 172.003906 409.046875 192.339844 411.746094 205.59375 411.746094 L 253.851562 411.746094 C 256.039062 411.746094 256.808594 411.746094 257.453125 408.53125 C 258.097656 405.3125 261.183594 384.59375 261.183594 384.59375 C 261.183594 384.59375 261.972656 366.238281 261.972656 362.574219 C 261.972656 360.257812 257.664062 364.199219 257.148438 365.519531 C 256.28125 367.738281 252.957031 385.246094 246.257812 391.945312 C 239.558594 398.648438 235.351562 402.195312 220.808594 402.195312 C 206.269531 402.195312 197.097656 400.683594 186.546875 391.945312 C 175.996094 383.210938 167.960938 366.789062 175.738281 341.679688 C 181.46875 323.179688 199.226562 312.433594 227.082031 312.433594 L 269.917969 312.433594 L 269.917969 377.390625 C 269.917969 390.257812 270.175781 397.59375 267.730469 410.074219 C 265.285156 422.558594 260.78125 428.863281 251.386719 435.8125 C 241.992188 442.761719 224.875 443.917969 223.203125 444.820312 C 221.53125 445.722656 218.441406 450.066406 218.441406 450.066406 L 393.199219 450.066406 C 393.199219 450.066406 390.109375 445.722656 388.4375 444.820312 C 386.765625 443.917969 369.648438 442.761719 360.253906 435.8125 C 350.859375 428.863281 346.355469 422.558594 343.914062 410.074219 C 341.464844 397.59375 341.722656 390.257812 341.722656 377.390625 L 341.722656 312.433594 L 384.558594 312.433594 C 412.414062 312.433594 430.171875 323.179688 435.902344 341.679688 C 443.679688 366.789062 435.644531 383.210938 425.09375 391.945312 C 414.542969 400.683594 405.371094 402.195312 390.832031 402.195312 C 376.289062 402.195312 372.082031 398.648438 365.382812 391.945312 C 358.683594 385.246094 355.359375 367.738281 354.492188 365.519531 C 353.976562 364.199219 349.667969 360.257812 349.667969 362.574219 C 349.667969 366.238281 350.457031 384.59375 350.457031 384.59375 C 350.457031 384.59375 353.542969 405.3125 354.1875 408.53125 C 354.832031 411.746094 355.601562 411.746094 357.789062 411.746094 L 406.046875 411.746094 C 419.300781 411.746094 439.636719 409.046875 454.175781 399.265625 C 468.71875 389.484375 478.371094 375.09375 477.597656 355.332031 Z M 477.597656 355.332031 "/>
</g>
</svg>
